# xmcd CD database file
#
# Track frame offsets:
#	150
#	13817
#	27899
#	40619
#	50014
#	60002
#	75598
#	87271
#	99605
#	112750
#	127598
#	139193
#	153492
#	168596
#	181474
#	194539
#	206814
#	219081
#	229666
#	241787
#	255855
#	266068
#	280913
#	293377
#
# Disc length: 4089 seconds
#
# Revision: 1
# Processed by: cddbd v1.5.2PL0 Copyright (c) Steve Scherf et al.
# Submitted via: CDex 1.79
#
DISCID=380ff718
DTITLE=Merle Haggard - 24 At No.1
DYEAR=1900
DGENRE=Country
TTITLE0=I'm A Lonesome Fugitive
TTITLE1=Branded Man
TTITLE2=Sing Me Back Home
TTITLE3=The Legend Of Bonnie and Clyde
TTITLE4=Mamma Tried
TTITLE5=Hungry Eyes
TTITLE6=Working Man Blues
TTITLE7=Okie From Muskogee
TTITLE8=The Fighting Side Of Me
TTITLE9=Daddy Frank (The Guitar Man)
TTITLE10=Carolyn
TTITLE11=Grandma Harp
TTITLE12=It's Not Love (But It's Not Bad)
TTITLE13=I Wonder If They Ever Think Of Me
TTITLE14=Everybody's Had The Blues
TTITLE15=If We Make It Through December
TTITLE16=Things Aren't Funny Anymore
TTITLE17=Old Man From The Mountain
TTITLE18=Kentucky Gambler
TTITLE19=Always Wanting You
TTITLE20=Movin' On
TTITLE21=It's All In The Movies
TTITLE22=The Roots Of My Raising
TTITLE23=Cherokee Maiden
EXTD=
EXTT0=
EXTT1=
EXTT2=
EXTT3=
EXTT4=
EXTT5=
EXTT6=
EXTT7=
EXTT8=
EXTT9=
EXTT10=
EXTT11=
EXTT12=
EXTT13=
EXTT14=
EXTT15=
EXTT16=
EXTT17=
EXTT18=
EXTT19=
EXTT20=
EXTT21=
EXTT22=
EXTT23=
PLAYORDER=
